<?xml version="1.0" encoding="UTF-8"?>
<svg version="1.1" xmlns="http://www.w3.org/2000/svg" width="512" height="512">
<path d="M0 0 C168.96 0 337.92 0 512 0 C512 168.96 512 337.92 512 512 C343.04 512 174.08 512 0 512 C0 343.04 0 174.08 0 0 Z " fill="#FEFEFE" transform="translate(0,0)"/>
<path d="M0 0 C0 11.55 0 23.1 0 35 C-3.63 35.66 -7.26 36.32 -11 37 C-24.22294407 44.48140257 -31.21762407 54.31651275 -35.75 68.625 C-36.05292969 69.54023438 -36.35585938 70.45546875 -36.66796875 71.3984375 C-42.38634691 88.98562721 -42.12741612 109.53886649 -36 127 C-35.62617187 128.0828125 -35.25234375 129.165625 -34.8671875 130.28125 C-30.70312445 141.20157429 -23.68880923 152.60176749 -13.125 158.3125 C-8.30292879 160.42066691 -8.30292879 160.42066691 0 162 C0 173.22 0 184.44 0 196 C-18.5374527 196 -32.5339193 189.66592228 -46 177 C-53.53833476 169.11494658 -59.00978319 160.62319215 -64 151 C-64.48339844 150.07445312 -64.96679688 149.14890625 -65.46484375 148.1953125 C-73.04853494 132.65911839 -75.38882102 115.41276875 -75.3125 98.3125 C-75.31034485 97.65358765 -75.3081897 96.99467529 -75.30596924 96.3157959 C-75.15936355 68.32512531 -67.28730816 41.01392164 -47.49755859 20.46533203 C-34.1347743 7.39010684 -18.74106055 0 0 0 Z " fill="#E31C39" transform="translate(91,155)"/>
<path d="M0 0 C17.7178022 1.36290786 30.70543023 6.13141543 44 18 C44.76054687 18.66644531 45.52109375 19.33289063 46.3046875 20.01953125 C63.12760873 35.70734188 74.05545642 61.46225924 75.16113281 84.33300781 C75.55571366 118.34954773 71.69955746 150.05945991 47 176 C33.69818521 188.49145163 18.32345496 196 0 196 C0 184.78 0 173.56 0 162 C6.435 160.02 6.435 160.02 13 158 C27.15491421 148.74486379 34.90000812 133.84492804 38.91894531 117.68969727 C43.59826895 95.11868389 39.72163396 71.61675407 27.45703125 52.1796875 C20.6011415 41.92342348 11.79254671 36.94813668 0 34 C0 22.78 0 11.56 0 0 Z " fill="#E31B38" transform="translate(125,155)"/>
<path d="M0 0 C41.25 0 82.5 0 125 0 C125 11.55 125 23.1 125 35 C83.75 35 42.5 35 0 35 C0 23.45 0 11.9 0 0 Z " fill="#E3203C" transform="translate(225,317)"/>
<path d="M0 0 C41.25 0 82.5 0 125 0 C125 11.55 125 23.1 125 35 C83.75 35 42.5 35 0 35 C0 23.45 0 11.9 0 0 Z " fill="#E3203C" transform="translate(225,155)"/>
<path d="M0 0 C40.92 0 81.84 0 124 0 C124 11.55 124 23.1 124 35 C83.08 35 42.16 35 0 35 C0 23.45 0 11.9 0 0 Z " fill="#E3203C" transform="translate(374,155)"/>
<path d="M0 0 C11.55 0 23.1 0 35 0 C35 37.95 35 75.9 35 115 C23.45 115 11.9 115 0 115 C0 77.05 0 39.1 0 0 Z " fill="#E3213D" transform="translate(374,237)"/>
<path d="M0 0 C26.4 0 52.8 0 80 0 C80 11.22 80 22.44 80 34 C53.6 34 27.2 34 0 34 C0 22.78 0 11.56 0 0 Z " fill="#7D9986" transform="translate(225,237)"/>
</svg>
