<?xml version="1.0" encoding="UTF-8"?>
<svg id="Layer_1" data-name="Layer 1" xmlns="http://www.w3.org/2000/svg" viewBox="0 0 349.65 134.02">
  <defs>
    <style>
      .cls-1 {
        fill: #fff;
      }

      .cls-2 {
        fill: #7d9885;
      }
    </style>
  </defs>
  <path class="cls-1" d="M51.87,134.02c-14.43,0-28.27-7.71-37.97-21.15C4.94,100.47,0,84.18,0,67.01S4.94,33.56,13.9,21.15C23.6,7.71,37.44,0,51.87,0v25c-6.39,0-12.68,3.83-17.7,10.78-5.82,8.06-9.16,19.45-9.16,31.23s3.34,23.16,9.16,31.23c5.02,6.95,11.31,10.78,17.7,10.78v25Z"/>
  <path class="cls-1" d="M79.81,134.02v-25c6.39,0,12.68-3.83,17.7-10.78,5.82-8.06,9.16-19.45,9.16-31.23s-3.34-23.16-9.16-31.23c-5.02-6.95-11.31-10.78-17.7-10.78V0c14.43,0,28.27,7.71,37.97,21.15,8.96,12.41,13.9,28.7,13.9,45.86s-4.94,33.46-13.9,45.86c-9.71,13.44-23.55,21.15-37.97,21.15Z"/>
  <rect class="cls-2" x="155.1" y="54.51" width="55.28" height="25"/>
  <rect class="cls-1" x="155.1" width="85.57" height="25"/>
  <rect class="cls-1" x="155.1" y="109.02" width="85.57" height="25"/>
  <rect class="cls-1" x="264.09" width="85.57" height="25"/>
  <rect class="cls-1" x="264.09" y="54.51" width="25" height="79.51"/>
</svg>